<svg width="1297" height="748" viewBox="0 0 1297 748" fill="none" xmlns="http://www.w3.org/2000/svg">
<path d="M474.921 608.156C474.921 721.927 455.27 691.518 341.5 691.518C227.73 691.518 0.000152588 656.788 0.000152588 543.018C0.000152588 429.247 143.729 421.019 257.499 421.019C371.269 421.019 474.921 494.385 474.921 608.156Z" fill="#B2DBEF"/>
<path d="M266.028 140.696C242.257 29.4364 386.05 55.233 497.309 31.4621C608.568 7.69119 598.001 38.0176 574.001 104.018C535.435 187.417 555.415 127.439 444.156 151.21C332.897 174.981 289.799 251.956 266.028 140.696Z" fill="#B2DBEF"/>
<path d="M1297 674.518C1297 788.288 1022.21 734.882 908.439 734.882C794.669 734.882 821.944 566.288 821.944 452.518C821.944 338.747 876.669 93.8818 990.439 93.8818C1104.21 93.8818 1297 560.747 1297 674.518Z" fill="#B2DBEF"/>
</svg>
